<?xml version="1.0" encoding="UTF-8"?><svg id="Layer_1" xmlns="http://www.w3.org/2000/svg" viewBox="0 0 100.6 180.47"><defs><style>.cls-1{fill:none;}.cls-2{fill:#fff;}</style></defs><g><path class="cls-2" d="M50.07,102.21c-7.2,0-14.01-7.97-14.01-16.41,.4-6.39-.38-13.67-2.17-14.46-1.81-.8-2.52-3.43-3.46-7.66-.32-1.43-.72-3.21-1.04-3.73l-.09-.16c-1.12-1.93-1.36-4.26-.65-6.39,.7-2.12,2.29-3.85,4.36-4.75,.94-.41,1.94-.61,2.99-.61,1.56,0,3.16,.48,4.48,1.36,1.14,.77,5.49,2.85,9.4,2.85h.18c3.12-.05,6.28-1.75,7.63-2.47,.32-.17,.57-.3,.72-.37,.44-.2,.9-.35,1.37-.46,.89-.33,1.81-.5,2.76-.5,1.79,0,3.48,.6,4.9,1.72,2.66,2.11,3.65,5.8,2.41,8.96-.28,.71-.65,1.37-1.11,1.97-.62,.8-1.02,2.41-1.4,3.96-.57,2.31-1.16,4.7-2.75,6.05-1.84,1.56-1.98,10.2-1.49,15.55v.14c0,8.49-5.83,15.41-13.01,15.41Z"/><path d="M35.99,49.54c1.28,0,2.56,.39,3.65,1.11,.02,.01,.04,.03,.07,.04,1,.68,5.66,3.06,10.16,3.06,.07,0,.14,0,.2,0,4.15-.07,8.11-2.6,8.93-2.96,.39-.17,.79-.3,1.2-.4,.74-.29,1.53-.44,2.32-.44,1.37,0,2.77,.44,3.97,1.4,2.14,1.7,2.94,4.69,1.95,7.24-.23,.59-.54,1.13-.9,1.6-1.79,2.32-1.71,7.89-3.94,9.79-3.29,2.79-2.02,16.83-2.02,16.83,0,7.68-5.15,13.91-11.51,13.91s-12.51-7.23-12.51-14.91c0,0,.89-14.09-3.06-15.83-2.04-.9-2.67-8.9-3.83-10.8-.03-.04-.05-.08-.07-.13-1.88-3.25-.55-7.48,3-9.01,.76-.33,1.58-.49,2.4-.49m0-3s0,0,0,0c-1.25,0-2.46,.25-3.59,.74-2.46,1.07-4.35,3.13-5.19,5.66-.84,2.53-.55,5.3,.78,7.61,.04,.06,.07,.12,.11,.19,.22,.42,.6,2.14,.85,3.28,.89,3.99,1.66,7.44,4.2,8.65,1.09,1.18,1.76,7.29,1.4,12.96v.09s0,.09,0,.09c0,9.37,7.39,17.91,15.51,17.91s14.51-7.58,14.51-16.91v-.27c-.58-6.28-.1-13.1,.99-14.3,1.93-1.63,2.61-4.38,3.21-6.81,.31-1.27,.71-2.85,1.13-3.4,.55-.71,.99-1.49,1.32-2.34,1.48-3.77,.3-8.17-2.88-10.68-1.69-1.34-3.7-2.05-5.83-2.05-1.09,0-2.17,.19-3.2,.56-.53,.13-1.05,.31-1.54,.53-.23,.1-.48,.24-.82,.42-1.25,.67-4.18,2.24-6.95,2.29h-.15c-3.6,0-7.65-1.98-8.48-2.54l-.09-.06c-1.59-1.05-3.42-1.61-5.31-1.61h0Z"/></g><rect class="cls-1" width="100.6" height="180.47"/></svg>