<?xml version="1.0" encoding="UTF-8"?><svg id="Layer_1" xmlns="http://www.w3.org/2000/svg" viewBox="0 0 100.6 180.47"><defs><style>.cls-1{fill:none;}.cls-2{fill:#fff;}</style></defs><g><path class="cls-2" d="M44.49,51.45v-9.21c-2.67-1.82-4.31-4.85-4.31-8.17v-8.13c0-5.45,4.44-9.89,9.89-9.89s9.89,4.44,9.89,9.89v8.13c0,3.32-1.64,6.35-4.31,8.17v9.21h-11.15Z"/><path d="M50.07,17.56c4.63,0,8.39,3.75,8.39,8.39v8.13c0,3.47-2.11,6.45-5.12,7.73h.81v8.15h-8.15v-8.15h.81c-3.01-1.27-5.12-4.25-5.12-7.73v-8.13c0-4.63,3.75-8.39,8.39-8.39m0-3c-6.28,0-11.39,5.11-11.39,11.39v8.13c0,3.54,1.63,6.8,4.31,8.93v9.95h14.15v-9.95c2.69-2.13,4.31-5.39,4.31-8.93v-8.13c0-6.28-5.11-11.39-11.39-11.39h0Z"/></g><rect class="cls-1" width="100.6" height="180.47"/></svg>