<?xml version="1.0" encoding="UTF-8"?><svg id="Layer_1" xmlns="http://www.w3.org/2000/svg" viewBox="0 0 100.6 180.47"><defs><style>.cls-1{fill:none;}.cls-2{fill:#fff;}</style></defs><g><path class="cls-2" d="M65.43,164.42c-1.66,0-3.14-.79-3.96-2.1l-6.03-11.21c-1.07-1.72-.37-4.19,1.62-5.41,.23-.15,.48-.27,.74-.37,.06-1.67,.13-3.83,.2-5.99,.22-6.68,.29-8.59,.33-9.2-.04-.18-.16-.54-.23-.79-.17-.53-.32-1.02-.39-1.44l-7.33-27.4v-.09c-.3-2,.22-4,1.43-5.61,1.21-1.62,2.99-2.66,4.99-2.95,.36-.05,.72-.08,1.07-.08,3.74,0,6.96,2.8,7.49,6.51v.09s.53,28.38,.53,28.38c.12,1.18-.23,3.92-.28,4.28-.03,.38-.19,5.2-.32,9.07-.27,7.93-.31,9.06-.35,9.32-.01,.07-.02,.14-.04,.21l5.43,7.12,.04,.06c.68,1.1,.83,2.43,.42,3.74-.39,1.23-1.24,2.29-2.39,3.01-.91,.56-1.93,.86-2.96,.86h0Z"/><path d="M57.86,93.27c2.98,0,5.58,2.19,6.01,5.22l.51,28.36c.11,.75-.16,3.23-.27,3.95-.07,.47-.6,17.92-.67,18.39-.04,.26-.12,.5-.21,.73l5.85,7.68c.93,1.5,.27,3.6-1.48,4.68-.69,.43-1.45,.63-2.17,.63-1.1,0-2.12-.48-2.68-1.39l-5.98-11.13c-.68-1.1-.2-2.64,1.08-3.43,.45-.28,.93-.42,1.4-.45,.17-4.69,.52-16,.58-16.38,.05-.32-.57-1.86-.66-2.54l-7.33-27.39c-.47-3.32,1.84-6.4,5.16-6.87,.29-.04,.58-.06,.86-.06m0-3c-.43,0-.86,.03-1.28,.09-2.4,.34-4.52,1.6-5.98,3.53-1.46,1.94-2.07,4.33-1.73,6.73l.03,.18,.05,.17,7.29,27.26c.09,.5,.26,1.04,.43,1.56,.05,.15,.11,.35,.15,.5-.04,.84-.12,2.96-.32,8.94-.06,1.81-.12,3.62-.17,5.15-.02,.01-.04,.02-.06,.03-2.65,1.64-3.58,4.97-2.11,7.46l5.95,11.07,.04,.08,.05,.08c1.09,1.76,3.05,2.81,5.23,2.81,1.31,0,2.61-.38,3.75-1.08,3.15-1.95,4.25-5.91,2.45-8.81l-.08-.12-.09-.11-5.02-6.59c.04-.72,.11-2.67,.33-9.1,.12-3.69,.28-8.26,.32-8.97,.08-.6,.4-3.08,.28-4.45l-.51-28.24v-.18s-.03-.18-.03-.18c-.63-4.45-4.49-7.8-8.98-7.8h0Z"/></g><rect class="cls-1" width="100.6" height="180.47"/></svg>