<?xml version="1.0" encoding="UTF-8"?><svg id="Layer_1" xmlns="http://www.w3.org/2000/svg" viewBox="0 0 100.6 180.47"><defs><style>.cls-1{fill:none;}.cls-2{fill:#fff;}</style></defs><g><path class="cls-2" d="M78.5,107.27c-2.19,0-3.98-1.44-4.14-3.3l-.96-5.19v-.1c-.06-1.09,.37-2.14,1.19-2.98l-.79-18.11c-1.37-2.27-5.14-8.09-7.68-12.01-1.74-2.68-2.41-3.72-2.53-3.94-.79-1.36-1.1-2.9-.88-4.33,.23-1.54,1.07-2.83,2.31-3.54,.68-.4,1.48-.6,2.29-.6,2.06,0,4.07,1.27,5.25,3.31,.1,.17,.65,1.19,1.46,2.66,2.16,3.96,6.15,11.27,7.67,13.86,.59,.62,.96,1.37,1.1,2.2,.29,.93,.35,1.88,.17,2.78,.24,5.46,.82,18.86,.84,19.26,0,.21,0,.42-.02,.63,.02,.12,.04,.23,.04,.35v.18s-1.02,5.29-1.02,5.29c-.02,.95-.47,1.86-1.25,2.53-.75,.64-1.74,1.01-2.8,1.06-.08,0-.16,0-.23,0Z"/><path d="M67.29,54.66c1.46,0,3.02,.95,3.95,2.56,.36,.62,7.26,13.36,9.23,16.7,.45,.43,.75,.99,.84,1.63,.27,.79,.3,1.59,.12,2.29,.23,5.33,.83,19.05,.85,19.46,0,.21,0,.41-.05,.61,.03,.12,.06,.24,.07,.37l-1.02,5.26c.05,1.17-1.12,2.17-2.62,2.23-.05,0-.11,0-.16,0-1.43,0-2.6-.87-2.65-1.99l-.96-5.17c-.04-.88,.45-1.69,1.23-2.25-.17-3.82-.68-15.53-.84-19.21-1.79-3.04-10.03-15.63-10.39-16.26-1.27-2.2-.88-4.81,.88-5.83,.47-.27,1-.4,1.54-.4m0-3c-1.07,0-2.13,.28-3.04,.81-1.63,.94-2.74,2.63-3.04,4.62-.27,1.77,.11,3.65,1.07,5.31,.14,.25,.65,1.03,2.57,4,2.42,3.74,5.97,9.22,7.46,11.66l.39,8.85,.36,8.28c-.81,1.04-1.23,2.28-1.17,3.58v.21s.05,.2,.05,.2l.93,5.02c.26,2.6,2.68,4.59,5.63,4.59,.1,0,.2,0,.3,0,1.39-.06,2.7-.57,3.7-1.42,1.08-.92,1.71-2.17,1.77-3.5l.97-5,.07-.35-.02-.36c0-.12-.02-.23-.03-.33,.02-.22,.02-.44,0-.65-.01-.24-.23-5.18-.45-10.27l-.39-8.82c.18-1.06,.11-2.17-.21-3.24-.19-1.01-.66-1.96-1.35-2.74-1.55-2.67-5.43-9.77-7.55-13.66-1.02-1.87-1.39-2.54-1.49-2.72-1.45-2.5-3.95-4.06-6.54-4.06h0Z"/></g><rect class="cls-1" width="100.6" height="180.47"/></svg>